<?xml version="1.0" encoding="UTF-8"?>
<svg id="_レイヤー_2" data-name="レイヤー 2" xmlns="http://www.w3.org/2000/svg" viewBox="0 0 645.75 645.75">
  <g id="_レイヤー_1-2" data-name="レイヤー 1">
    <g>
      <g>
        <path d="M296.9,380.2c65.16,29.53,94.16,106.56,64.63,171.72s-106.56,94.16-171.72,64.63-94.16-106.56-64.63-171.72,106.56-94.16,171.72-64.63Z"/>
        <path d="M190.01,616.1c-31.44-14.25-55.46-39.89-67.62-72.2-12.16-32.31-11.01-67.42,3.24-98.86s39.89-55.46,72.2-67.62c32.31-12.16,67.42-11.01,98.86,3.24s55.46,39.89,67.62,72.2c12.16,32.31,11.01,67.42-3.24,98.86s-39.89,55.46-72.2,67.62c-32.31,12.16-67.42,11.01-98.86-3.24M189.6,617.01c65.52,29.69,142.7.64,172.39-64.88s.64-142.7-64.88-172.39-142.7-.64-172.39,64.88-.64,142.7,64.88,172.39h0Z"/>
      </g>
      <g>
        <path d="M260.09,327.17c4.88,71.37-49.22,133.41-120.59,138.29S6.09,416.23,1.21,344.86s49.22-133.41,120.59-138.29,133.41,49.22,138.29,120.59Z"/>
        <path d="M1.71,344.83c-2.35-34.44,8.85-67.74,31.53-93.76,22.69-26.02,54.15-41.64,88.59-44s67.74,8.85,93.76,31.53c26.02,22.69,41.64,54.15,44,88.59s-8.85,67.74-31.53,93.76c-22.69,26.02-54.15,41.64-88.59,44s-67.74-8.85-93.76-31.53c-26.02-22.69-41.64-54.15-44-88.59M.71,344.9c4.9,71.76,67.06,125.96,138.82,121.06s125.96-67.06,121.06-138.82-67.06-125.96-138.82-121.06S-4.2,273.13.71,344.9h0Z"/>
      </g>
      <g>
        <path d="M289.34,269.62c-60.54,38.12-140.8,19.88-178.92-40.66s-19.88-140.8,40.66-178.92,140.8-19.88,178.92,40.66,19.88,140.8-40.66,178.92Z"/>
        <path d="M151.35,50.46c29.21-18.39,63.84-24.31,97.5-16.66,33.66,7.65,62.33,27.95,80.73,57.17s24.31,63.84,16.66,97.5c-7.65,33.66-27.95,62.33-57.17,80.73s-63.84,24.31-97.5,16.66c-33.66-7.65-62.33-27.95-80.73-57.17s-24.31-63.84-16.66-97.5c7.65-33.66,27.95-62.33,57.17-80.73M150.82,49.61c-60.87,38.33-79.15,118.74-40.82,179.61s118.74,79.15,179.61,40.82,79.15-118.74,40.82-179.61S211.69,11.28,150.82,49.61h0Z"/>
      </g>
      <g>
        <path d="M353.88,268.11c-62.25-35.25-84.22-114.57-48.98-176.83S419.48,7.06,481.73,42.31s84.22,114.57,48.98,176.83-114.57,84.22-176.83,48.98Z"/>
        <path d="M481.49,42.74c30.04,17.01,51.66,44.7,60.87,77.97,9.21,33.27,4.92,68.14-12.09,98.18s-44.7,51.66-77.97,60.87c-33.27,9.21-68.14,4.92-98.18-12.09s-51.66-44.7-60.87-77.97c-9.21-33.27-4.92-68.14,12.09-98.18s44.7-51.66,77.97-60.87c33.27-9.21,68.14-4.92,98.18,12.09M481.98,41.87c-62.59-35.44-142.07-13.43-177.51,49.17s-13.43,142.07,49.17,177.51,142.07,13.43,177.51-49.17,13.43-142.07-49.17-177.51h0Z"/>
      </g>
      <g>
        <path d="M385.8,324.23c1.54-71.52,60.98-128.46,132.5-126.92s128.46,60.98,126.92,132.5-60.98,128.46-132.5,126.92-128.46-60.98-126.92-132.5Z"/>
        <path d="M644.72,329.8c-.74,34.51-14.88,66.67-39.81,90.55-24.93,23.88-57.67,36.62-92.18,35.88-34.51-.74-66.67-14.88-90.55-39.81-23.88-24.93-36.62-57.67-35.88-92.18s14.88-66.67,39.81-90.55c24.93-23.88,57.67-36.62,92.18-35.88,34.51.74,66.67,14.88,90.55,39.81,23.88,24.93,36.62,57.67,35.88,92.18M645.72,329.82c1.55-71.91-55.5-131.47-127.41-133.01s-131.47,55.5-133.01,127.41,55.5,131.47,127.41,133.01,131.47-55.5,133.01-127.41h0Z"/>
      </g>
      <g>
        <path d="M351.5,378.92c63.71-32.54,142.02-7.17,174.56,56.54s7.17,142.02-56.54,174.55-142.02,7.17-174.55-56.54-7.17-142.02,56.54-174.56Z"/>
        <path d="M469.29,609.57c-30.74,15.7-65.76,18.49-98.61,7.85-32.84-10.64-59.58-33.43-75.28-64.17s-18.49-65.76-7.85-98.61c10.64-32.84,33.43-59.58,64.17-75.28s65.76-18.49,98.61-7.85c32.84,10.64,59.58,33.43,75.28,64.17s18.49,65.76,7.85,98.61c-10.64,32.84-33.43,59.58-64.17,75.28M469.74,610.46c64.06-32.71,89.47-111.17,56.76-175.23s-111.17-89.47-175.23-56.76-89.47,111.17-56.76,175.23,111.17,89.47,175.23,56.76h0Z"/>
      </g>
    </g>
  </g>
</svg>