<?xml version="1.0" encoding="UTF-8"?>
<svg id="_レイヤー_2" data-name="レイヤー 2" xmlns="http://www.w3.org/2000/svg" viewBox="0 0 529 529">
  <g id="_レイヤー_1-2" data-name="レイヤー 1">
    <g>
      <path d="M264.5,528.5c-70.52,0-136.81-27.46-186.68-77.32C27.96,401.31.5,335.02.5,264.5S27.96,127.69,77.82,77.82C127.69,27.96,193.98.5,264.5.5s136.81,27.46,186.68,77.32c49.86,49.86,77.32,116.16,77.32,186.68s-27.46,136.81-77.32,186.68c-49.86,49.86-116.16,77.32-186.68,77.32Z"/>
      <path d="M264.5,1c35.57,0,70.08,6.97,102.57,20.71,31.38,13.27,59.56,32.27,83.76,56.47,24.2,24.2,43.2,52.38,56.47,83.76,13.74,32.48,20.71,66.99,20.71,102.57s-6.97,70.08-20.71,102.57c-13.27,31.38-32.27,59.56-56.47,83.76-24.2,24.2-52.38,43.2-83.76,56.47-32.48,13.74-66.99,20.71-102.57,20.71s-70.08-6.97-102.57-20.71c-31.38-13.27-59.56-32.27-83.76-56.47-24.2-24.2-43.2-52.38-56.47-83.76C7.97,334.58,1,300.07,1,264.5s6.97-70.08,20.71-102.57c13.27-31.38,32.27-59.56,56.47-83.76,24.2-24.2,52.38-43.2,83.76-56.47C194.42,7.97,228.93,1,264.5,1M264.5,0C118.42,0,0,118.42,0,264.5s118.42,264.5,264.5,264.5,264.5-118.42,264.5-264.5S410.58,0,264.5,0h0Z"/>
    </g>
  </g>
</svg>