<?xml version="1.0" encoding="UTF-8"?>
<svg id="_レイヤー_2" data-name="レイヤー 2" xmlns="http://www.w3.org/2000/svg" viewBox="0 0 893.15 465.49">
  <g id="_レイヤー_1-2" data-name="レイヤー 1">
    <path d="M723.52,202.14c-13.56-3.72-26.89-6.88-39.86-9.5,17.33-7.57,28.88-18.31,32.64-32,12.91-47.03-70.84-111-187.06-142.9-116.21-31.89-220.89-19.62-233.79,27.41-1.17,4.27-1.54,8.68-1.16,13.19-113.27-30.63-213.44-23.56-224.31,16.02-6.07,22.1,17,49.7,58.22,75.24-7.1,1.82-13.36,3.99-18.69,6.52-4.48.81-8.91,1.71-13.26,2.71C-2.77,181.52-29.8,243.95,35.87,298.27c55.81,46.16,160.6,71.6,251.59,64.28,27.46,60.71,88.56,102.95,159.52,102.95,54.66,0,103.45-25.06,135.54-64.31,134.19,21.89,234.04,15.14,244.18-21.81,3.33-12.12-3.33-26.38-18.22-41.82,46.34,1.25,78.83-7.71,83.96-26.4,8.83-32.18-66.8-80.98-168.93-109.01Z"/>
  </g>
</svg>